<svg width="168" height="39" viewBox="0 0 168 39" fill="none" xmlns="http://www.w3.org/2000/svg">
<path d="M22.2188 21.7206C22.2188 22.7463 22.0864 23.6507 21.8217 24.4338C21.568 25.2169 21.204 25.8952 20.7298 26.4687C20.2665 27.0423 19.7151 27.5221 19.0754 27.9081C18.4357 28.2941 17.7353 28.6029 16.9743 28.8346C16.2243 29.0662 15.4246 29.2316 14.5754 29.3309C13.7371 29.4301 12.8824 29.4798 12.011 29.4798C10.864 29.4798 9.80515 29.3915 8.83456 29.2151C7.86397 29.0496 6.94853 28.7849 6.08824 28.421C5.23897 28.046 4.41728 27.5662 3.62316 26.9816C2.84007 26.3971 2.05699 25.6857 1.2739 24.8474L4.6489 21.4228C4.95772 22.1838 5.38235 22.8897 5.92279 23.5404C6.46324 24.1801 7.05331 24.7316 7.69302 25.1949C8.34375 25.6581 9.01654 26.0221 9.7114 26.2868C10.4063 26.5515 11.0625 26.6838 11.6801 26.6838C12.4081 26.6838 13.0919 26.6342 13.7316 26.5349C14.3713 26.4246 14.9283 26.2482 15.4026 26.0055C15.8768 25.7629 16.2463 25.443 16.511 25.046C16.7868 24.6379 16.9246 24.1305 16.9246 23.5239C16.9246 23.0607 16.8199 22.6636 16.6103 22.3327C16.4007 22.0018 16.125 21.7206 15.7831 21.489C15.4522 21.2463 15.0717 21.0423 14.6415 20.8768C14.2114 20.7114 13.7702 20.5735 13.318 20.4632C12.8768 20.3419 12.4412 20.2371 12.011 20.1489C11.5809 20.0496 11.2004 19.9504 10.8695 19.8511C10.2188 19.6636 9.54044 19.4651 8.83456 19.2555C8.12868 19.0349 7.43382 18.7868 6.75 18.511C6.06618 18.2353 5.41544 17.921 4.79779 17.568C4.19118 17.204 3.65625 16.7794 3.19301 16.2941C2.72978 15.7978 2.36029 15.2298 2.08456 14.5901C1.80882 13.9393 1.67096 13.1949 1.67096 12.3566C1.67096 11.3529 1.79228 10.4651 2.03493 9.69301C2.2886 8.90993 2.64154 8.23162 3.09375 7.65809C3.54596 7.08456 4.08088 6.60478 4.69853 6.21875C5.31618 5.82169 5.99449 5.50735 6.73346 5.27573C7.47243 5.03309 8.25552 4.86213 9.08272 4.76287C9.92096 4.65257 10.7757 4.59743 11.6471 4.59743C12.8382 4.59743 13.9191 4.70772 14.8897 4.92831C15.8713 5.1489 16.7757 5.46323 17.6029 5.87132C18.4301 6.27941 19.1857 6.77022 19.8695 7.34375C20.5643 7.90625 21.2151 8.53493 21.8217 9.22978L18.4467 12.6544C18.182 11.8603 17.8125 11.1434 17.3382 10.5037C16.875 9.86397 16.3566 9.31801 15.7831 8.86581C15.2096 8.40257 14.6085 8.04963 13.9798 7.80698C13.3511 7.55331 12.7445 7.42647 12.1599 7.42647C11.3989 7.42647 10.6985 7.48162 10.0588 7.59191C9.41912 7.69118 8.86765 7.86213 8.40441 8.10478C7.95221 8.3364 7.59927 8.65625 7.34559 9.06434C7.09191 9.4614 6.96507 9.95772 6.96507 10.5533C6.96507 11.0276 7.05882 11.4301 7.24632 11.761C7.43382 12.0919 7.68199 12.3732 7.99081 12.6048C8.31066 12.8364 8.66912 13.0294 9.06618 13.1838C9.46324 13.3272 9.87132 13.454 10.2904 13.5643C10.7206 13.6746 11.1397 13.7739 11.5478 13.8621C11.9669 13.9393 12.3474 14.0276 12.6893 14.1268C13.3511 14.3143 14.046 14.5129 14.7739 14.7224C15.5018 14.932 16.2188 15.1801 16.9246 15.4669C17.6305 15.7426 18.3033 16.0625 18.943 16.4265C19.5827 16.7904 20.1452 17.2261 20.6305 17.7335C21.1158 18.2298 21.5018 18.8088 21.7886 19.4706C22.0754 20.1213 22.2188 20.8713 22.2188 21.7206ZM31.5662 5.27573C31.5662 5.69485 31.4835 6.09191 31.318 6.46691C31.1636 6.84191 30.9485 7.16728 30.6728 7.44301C30.3971 7.71875 30.0717 7.93934 29.6967 8.10478C29.3217 8.25919 28.9246 8.3364 28.5055 8.3364C28.0864 8.3364 27.6893 8.25919 27.3143 8.10478C26.9504 7.93934 26.6305 7.71875 26.3548 7.44301C26.079 7.16728 25.8585 6.84191 25.693 6.46691C25.5386 6.09191 25.4614 5.69485 25.4614 5.27573C25.4614 4.85662 25.5386 4.46507 25.693 4.1011C25.8585 3.7261 26.079 3.40073 26.3548 3.125C26.6305 2.84926 26.9504 2.63419 27.3143 2.47978C27.6893 2.31434 28.0864 2.23162 28.5055 2.23162C28.9246 2.23162 29.3217 2.31434 29.6967 2.47978C30.0717 2.63419 30.3971 2.84926 30.6728 3.125C30.9485 3.40073 31.1636 3.7261 31.318 4.1011C31.4835 4.46507 31.5662 4.85662 31.5662 5.27573ZM31.318 29H25.7096V9.90809H31.318V29Z" fill="#325D99"/>
<path d="M142.324 5.27573C142.324 5.69485 142.241 6.09191 142.075 6.46691C141.921 6.84191 141.706 7.16728 141.43 7.44301C141.154 7.71875 140.829 7.93934 140.454 8.10478C140.079 8.25919 139.682 8.3364 139.263 8.3364C138.844 8.3364 138.447 8.25919 138.072 8.10478C137.708 7.93934 137.388 7.71875 137.112 7.44301C136.836 7.16728 136.616 6.84191 136.45 6.46691C136.296 6.09191 136.219 5.69485 136.219 5.27573C136.219 4.85662 136.296 4.46507 136.45 4.1011C136.616 3.7261 136.836 3.40073 137.112 3.125C137.388 2.84926 137.708 2.63419 138.072 2.47978C138.447 2.31434 138.844 2.23162 139.263 2.23162C139.682 2.23162 140.079 2.31434 140.454 2.47978C140.829 2.63419 141.154 2.84926 141.43 3.125C141.706 3.40073 141.921 3.7261 142.075 4.1011C142.241 4.46507 142.324 4.85662 142.324 5.27573ZM142.075 29H136.467V9.90809H142.075V29ZM166.313 18.0478C166.313 19.3382 166.153 20.6838 165.833 22.0846C165.524 23.4853 165.088 24.8585 164.526 26.204C163.963 27.5496 163.29 28.8125 162.507 29.9926C161.724 31.1838 160.864 32.2096 159.926 33.0699L157.825 31.9283C158.123 31.3768 158.404 30.7592 158.669 30.0754C158.934 29.3915 159.171 28.6691 159.381 27.9081C159.601 27.136 159.794 26.3419 159.96 25.5257C160.136 24.7096 160.279 23.9044 160.39 23.1103C160.511 22.3051 160.599 21.5276 160.654 20.7776C160.721 20.0165 160.754 19.3107 160.754 18.6599C160.754 18.2298 160.737 17.7721 160.704 17.2868C160.671 16.7904 160.599 16.2996 160.489 15.8143C160.39 15.318 160.252 14.8437 160.075 14.3915C159.899 13.9393 159.662 13.5423 159.364 13.2004C159.077 12.8585 158.724 12.5827 158.305 12.3732C157.897 12.1636 157.412 12.0588 156.849 12.0588C156.298 12.0588 155.807 12.1857 155.377 12.4393C154.947 12.682 154.566 13.0074 154.235 13.4154C153.904 13.8125 153.618 14.2702 153.375 14.7886C153.143 15.307 152.95 15.8419 152.796 16.3934C152.653 16.9338 152.548 17.4687 152.482 17.9982C152.415 18.5276 152.382 19.0018 152.382 19.421V29H146.774V9.89154H148.925L151.489 14.3419C151.798 13.6029 152.184 12.9301 152.647 12.3235C153.11 11.7169 153.634 11.1985 154.219 10.7684C154.803 10.3382 155.449 10.0074 156.154 9.77573C156.871 9.54412 157.643 9.42831 158.471 9.42831C159.794 9.42831 160.947 9.64338 161.928 10.0735C162.91 10.5037 163.726 11.1048 164.377 11.8768C165.028 12.6379 165.513 13.5478 165.833 14.6066C166.153 15.6544 166.313 16.8015 166.313 18.0478Z" fill="#325D99"/>
<path d="M59.261 17.6011V17.9154C59.239 18.8419 59.1397 19.8015 58.9632 20.7941C58.7978 21.7868 58.5607 22.7794 58.2518 23.7721C57.943 24.7647 57.5735 25.7463 57.1434 26.7169C56.7132 27.6875 56.2279 28.614 55.6875 29.4963C55.1581 30.3897 54.5846 31.2224 53.9669 31.9945C53.3493 32.7776 52.6985 33.4669 52.0147 34.0625L49.5496 32.6397C49.9357 31.989 50.2831 31.2776 50.5919 30.5055C50.9118 29.7445 51.1985 28.9449 51.4522 28.1066C51.7059 27.2684 51.921 26.4081 52.0974 25.5257C52.2849 24.6434 52.4393 23.7665 52.5607 22.8952C52.682 22.0239 52.7702 21.1691 52.8254 20.3309C52.8915 19.4816 52.9246 18.6765 52.9246 17.9154C52.9246 17.3199 52.9191 16.6471 52.9081 15.8971C52.9081 15.136 52.864 14.364 52.7757 13.5809C52.6985 12.7978 52.5662 12.0368 52.3787 11.2978C52.1912 10.5478 51.9099 9.88051 51.5349 9.29595C51.171 8.7114 50.6967 8.24265 50.1121 7.8897C49.5386 7.53676 48.8217 7.36029 47.9614 7.36029C47.2004 7.36029 46.5441 7.49265 45.9926 7.75735C45.4522 8.01103 44.989 8.35845 44.6029 8.79963C44.2279 9.22978 43.9246 9.73162 43.693 10.3051C43.4724 10.8787 43.296 11.4853 43.1636 12.125C43.0423 12.7537 42.9596 13.3934 42.9154 14.0441C42.8824 14.6838 42.8658 15.2904 42.8658 15.864V20.4798H49.9963V23.2096H42.8658V29H36.2978V16.8897C36.2978 15.1581 36.5735 13.5478 37.125 12.0588C37.6765 10.5699 38.454 9.27941 39.4577 8.1875C40.4724 7.08456 41.6857 6.22426 43.0974 5.60662C44.5202 4.97794 46.1029 4.6636 47.8456 4.6636C49.0257 4.6636 50.1287 4.83456 51.1544 5.17647C52.1912 5.50735 53.1342 5.97059 53.9835 6.56618C54.8327 7.15073 55.5882 7.8511 56.25 8.66728C56.9228 9.47243 57.4798 10.3548 57.921 11.3143C58.3732 12.2739 58.7151 13.2886 58.9467 14.3585C59.1783 15.4283 59.2831 16.5092 59.261 17.6011ZM62.0404 20.8272C62.0404 19.9559 62.1121 19.0515 62.2555 18.114C62.4099 17.1765 62.625 16.239 62.9007 15.3015C63.1875 14.364 63.5294 13.4375 63.9265 12.5221C64.3235 11.6066 64.7702 10.7298 65.2665 9.89154H69.3529C69.0772 10.7187 68.829 11.5846 68.6085 12.489C68.3989 13.3824 68.2169 14.2812 68.0625 15.1857C67.9191 16.079 67.8033 16.9559 67.7151 17.8162C67.6379 18.6765 67.5993 19.4761 67.5993 20.2151C67.5993 20.6452 67.6158 21.1085 67.6489 21.6048C67.693 22.0901 67.7647 22.5809 67.864 23.0772C67.9632 23.5625 68.1011 24.0312 68.2776 24.4835C68.4651 24.9357 68.7022 25.3382 68.989 25.6912C69.2757 26.0331 69.6232 26.3088 70.0313 26.5184C70.4504 26.7169 70.9412 26.8162 71.5037 26.8162C72.0552 26.8162 72.546 26.6949 72.9761 26.4522C73.4173 26.1985 73.8033 25.8732 74.1342 25.4761C74.4651 25.068 74.7463 24.6048 74.9779 24.0864C75.2096 23.568 75.3971 23.0386 75.5404 22.4982C75.6949 21.9467 75.8052 21.4118 75.8713 20.8934C75.9485 20.364 75.9871 19.8897 75.9871 19.4706V9.89154H81.579V29H79.4283L76.864 24.5496C76.5441 25.2886 76.1526 25.9614 75.6893 26.568C75.2371 27.1636 74.7188 27.6765 74.1342 28.1066C73.5496 28.5368 72.8989 28.8676 72.182 29.0993C71.4761 29.3309 70.7096 29.4467 69.8824 29.4467C68.5588 29.4467 67.4063 29.2316 66.4246 28.8015C65.443 28.3713 64.6268 27.7757 63.9761 27.0147C63.3254 26.2537 62.8401 25.3493 62.5202 24.3015C62.2004 23.2426 62.0404 22.0846 62.0404 20.8272ZM105.502 29H103.351L100.869 24.8474C100.627 25.5423 100.29 26.171 99.8603 26.7335C99.4412 27.296 98.9504 27.7812 98.3879 28.1893C97.8364 28.5864 97.2243 28.8952 96.5515 29.1158C95.8897 29.3364 95.1893 29.4467 94.4504 29.4467C92.9945 29.4467 91.693 29.1875 90.546 28.6691C89.3989 28.1507 88.4283 27.4449 87.6342 26.5515C86.8401 25.6471 86.2335 24.5882 85.8143 23.375C85.3952 22.1618 85.1857 20.8603 85.1857 19.4706C85.1857 18.0809 85.3952 16.7794 85.8143 15.5662C86.2335 14.3529 86.8401 13.2996 87.6342 12.4062C88.4283 11.5129 89.3989 10.807 90.546 10.2886C91.693 9.77022 92.9945 9.51103 94.4504 9.51103C95.5643 9.51103 96.5846 9.7261 97.511 10.1562C98.4485 10.5864 99.2482 11.2592 99.9099 12.1746V2.86029H105.502V29ZM99.8768 19.4706C99.8768 19.0294 99.8438 18.5441 99.7776 18.0147C99.7114 17.4853 99.6066 16.9504 99.4632 16.4099C99.3199 15.8695 99.1324 15.3456 98.9007 14.8382C98.6691 14.3309 98.3824 13.8787 98.0404 13.4816C97.7096 13.0846 97.318 12.7702 96.8658 12.5386C96.4246 12.296 95.9173 12.1746 95.3438 12.1746C94.7151 12.1746 94.1691 12.2904 93.7059 12.5221C93.2426 12.7426 92.8456 13.046 92.5147 13.432C92.1838 13.807 91.9081 14.2426 91.6875 14.739C91.4779 15.2353 91.3125 15.7537 91.1912 16.2941C91.0699 16.8346 90.9816 17.3805 90.9265 17.932C90.8824 18.4724 90.8603 18.9853 90.8603 19.4706C90.8603 19.9559 90.8824 20.4743 90.9265 21.0257C90.9816 21.5662 91.0699 22.1066 91.1912 22.6471C91.3125 23.1875 91.4779 23.7114 91.6875 24.2187C91.9081 24.7151 92.1838 25.1562 92.5147 25.5423C92.8456 25.9173 93.2426 26.2206 93.7059 26.4522C94.1691 26.6728 94.7151 26.7831 95.3438 26.7831C95.9724 26.7831 96.5239 26.6728 96.9982 26.4522C97.4724 26.2316 97.875 25.9338 98.2059 25.5588C98.5478 25.1728 98.8235 24.7371 99.0331 24.2518C99.2537 23.7555 99.4246 23.2371 99.546 22.6967C99.6673 22.1452 99.75 21.5937 99.7941 21.0423C99.8493 20.4908 99.8768 19.9669 99.8768 19.4706ZM116.04 5.27573C116.04 5.69485 115.958 6.09191 115.792 6.46691C115.638 6.84191 115.423 7.16728 115.147 7.44301C114.871 7.71875 114.546 7.93934 114.171 8.10478C113.796 8.25919 113.399 8.3364 112.98 8.3364C112.561 8.3364 112.164 8.25919 111.789 8.10478C111.425 7.93934 111.105 7.71875 110.829 7.44301C110.553 7.16728 110.333 6.84191 110.167 6.46691C110.013 6.09191 109.936 5.69485 109.936 5.27573C109.936 4.85662 110.013 4.46507 110.167 4.1011C110.333 3.7261 110.553 3.40073 110.829 3.125C111.105 2.84926 111.425 2.63419 111.789 2.47978C112.164 2.31434 112.561 2.23162 112.98 2.23162C113.399 2.23162 113.796 2.31434 114.171 2.47978C114.546 2.63419 114.871 2.84926 115.147 3.125C115.423 3.40073 115.638 3.7261 115.792 4.1011C115.958 4.46507 116.04 4.85662 116.04 5.27573ZM115.792 29H110.184V9.90809H115.792V29ZM127.688 29H122.079V12.1085H118.605V9.89154H122.079V2.86029H127.688V9.89154H133.478V12.1085H127.688V29Z" fill="#FA896B"/>
</svg>
